<?xml version="1.0" encoding="utf-8"?>
<!-- Generator: Adobe Illustrator 22.1.0, SVG Export Plug-In . SVG Version: 6.00 Build 0)  -->
<svg version="1.1" id="Layer_1" xmlns="http://www.w3.org/2000/svg" xmlns:xlink="http://www.w3.org/1999/xlink" x="0px" y="0px"
	 viewBox="0 0 384 102" style="enable-background:new 0 0 384 102;" xml:space="preserve">
<style type="text/css">
	.st0{enable-background:new    ;}
	.st1{fill:#242960;}
	.st2{fill:#DF0A6B;}
	.st3{fill:#DE156C;}
	.st4{fill:url(#SVGID_1_);}
	.st5{fill:#47529D;}
	.st6{fill:url(#SVGID_2_);}
	.st7{fill:#252960;}
	.st8{fill:url(#SVGID_3_);}
</style>
<g transform="translate(108 98)">
	<g class="st0">
		<path class="st1" d="M47.8-33.2v-26.2h8.4c1.4,0,2.6,0.1,3.7,0.3c1.1,0.2,2.1,0.6,3,1.1c0.8,0.5,1.5,1.2,2,2
			c0.5,0.8,0.7,1.8,0.7,3c0,1.3-0.3,2.4-1,3.5c-0.6,1.1-1.5,1.8-2.7,2.2v0.2c1.4,0.3,2.6,1,3.6,2c0.9,1,1.4,2.4,1.4,4.2
			c0,1.3-0.3,2.4-0.8,3.4c-0.5,1-1.2,1.8-2.1,2.4c-0.9,0.6-2,1.1-3.2,1.4s-2.6,0.5-4,0.5H47.8z M52.4-48.5h3.3c1.8,0,3.2-0.3,4-1
			c0.8-0.7,1.2-1.6,1.2-2.7c0-1.3-0.4-2.2-1.3-2.7c-0.9-0.5-2.1-0.8-3.8-0.8h-3.4V-48.5z M52.4-36.8h3.9c1.9,0,3.4-0.4,4.4-1.1
			c1-0.7,1.6-1.8,1.6-3.3c0-1.4-0.5-2.4-1.5-3c-1-0.6-2.5-0.9-4.5-0.9h-3.9V-36.8z"/>
		<path class="st1" d="M77.1-32.7c-2.1,0-3.6-0.7-4.6-2S71-38,71-40.5v-12.3h4.6v11.7c0,1.6,0.2,2.8,0.7,3.4c0.5,0.7,1.3,1,2.3,1
			c0.9,0,1.6-0.2,2.3-0.6c0.7-0.4,1.4-1.1,2.1-2.1v-13.4h4.6v19.6h-3.8L83.5-36h-0.1c-0.9,1-1.8,1.8-2.8,2.4
			C79.6-33,78.4-32.7,77.1-32.7z"/>
		<path class="st1" d="M95.8-56.2c-0.8,0-1.5-0.2-2-0.7c-0.5-0.5-0.8-1.1-0.8-1.9s0.3-1.4,0.8-1.9c0.5-0.5,1.2-0.7,2-0.7
			c0.8,0,1.5,0.2,2,0.7c0.5,0.5,0.8,1.1,0.8,1.9s-0.3,1.4-0.8,1.9C97.3-56.5,96.6-56.2,95.8-56.2z M93.5-33.2v-19.6h4.6v19.6H93.5z"
			/>
		<path class="st1" d="M108.4-32.7c-1.7,0-2.8-0.5-3.5-1.5c-0.7-1-1-2.3-1-4v-23.2h4.6V-38c0,0.6,0.1,1,0.3,1.2
			c0.2,0.2,0.4,0.3,0.7,0.3c0.1,0,0.2,0,0.3,0c0.1,0,0.2,0,0.4-0.1l0.6,3.4C110.3-32.8,109.5-32.7,108.4-32.7z"/>
		<path class="st1" d="M121.7-32.7c-2.5,0-4.4-0.9-5.9-2.7c-1.5-1.8-2.2-4.3-2.2-7.6c0-1.6,0.2-3,0.7-4.3c0.5-1.3,1.1-2.4,1.9-3.2
			s1.7-1.6,2.7-2c1-0.5,2-0.7,3.1-0.7c1.1,0,2.1,0.2,2.8,0.6c0.8,0.4,1.5,0.9,2.3,1.6l-0.2-3.2v-7.1h4.6v28.2h-3.8l-0.3-2.1h-0.2
			c-0.7,0.7-1.6,1.3-2.5,1.8C123.8-32.9,122.7-32.7,121.7-32.7z M122.8-36.5c1.5,0,2.8-0.7,4.1-2.2v-9.2c-0.7-0.6-1.4-1-2-1.3
			c-0.7-0.2-1.3-0.4-2-0.4c-1.3,0-2.4,0.6-3.2,1.7c-0.9,1.1-1.3,2.7-1.3,4.8c0,2.1,0.4,3.8,1.1,4.9C120.3-37,121.4-36.5,122.8-36.5z
			"/>
		<path class="st1" d="M137.4-25.4v-27.4h3.8l0.3,2.1h0.2c0.8-0.7,1.7-1.3,2.8-1.8c1-0.5,2.1-0.8,3.2-0.8c1.2,0,2.3,0.2,3.3,0.7
			c0.9,0.5,1.8,1.1,2.4,2c0.7,0.9,1.2,1.9,1.5,3.2c0.3,1.2,0.5,2.6,0.5,4.1c0,1.7-0.2,3.2-0.7,4.5s-1.1,2.4-1.9,3.3
			s-1.7,1.6-2.7,2.1c-1,0.5-2.1,0.7-3.2,0.7c-0.9,0-1.7-0.2-2.6-0.6s-1.7-0.9-2.5-1.6l0.1,3.3v6.2H137.4z M145.9-36.5
			c1.3,0,2.4-0.6,3.3-1.7c0.9-1.1,1.3-2.8,1.3-5.1c0-2-0.3-3.5-1-4.6c-0.7-1.1-1.7-1.6-3.2-1.6c-1.4,0-2.8,0.7-4.3,2.2v9.2
			c0.7,0.6,1.4,1,2.1,1.3C144.7-36.6,145.3-36.5,145.9-36.5z"/>
		<path class="st1" d="M164.2-32.7c-1.7,0-3.1-0.5-4.2-1.6s-1.6-2.4-1.6-4.2c0-1,0.2-2,0.7-2.8s1.1-1.5,2.1-2.1
			c0.9-0.6,2.1-1.1,3.6-1.5c1.5-0.4,3.2-0.7,5.2-0.9c0-0.5-0.1-1-0.2-1.5c-0.1-0.5-0.3-0.9-0.6-1.2c-0.3-0.4-0.6-0.6-1.1-0.8
			c-0.5-0.2-1-0.3-1.7-0.3c-1,0-1.9,0.2-2.8,0.6c-0.9,0.4-1.8,0.8-2.7,1.4l-1.7-3.1c1.1-0.7,2.3-1.3,3.7-1.8
			c1.4-0.5,2.8-0.8,4.4-0.8c2.5,0,4.3,0.7,5.5,2.2c1.2,1.5,1.8,3.6,1.8,6.3v11.6h-3.8l-0.3-2.2h-0.2c-0.9,0.7-1.8,1.4-2.8,1.9
			C166.5-32.9,165.4-32.7,164.2-32.7z M165.7-36.3c0.8,0,1.5-0.2,2.2-0.6s1.4-0.9,2.1-1.6v-4.4c-1.3,0.2-2.5,0.4-3.4,0.6
			c-0.9,0.3-1.6,0.6-2.2,0.9s-1,0.7-1.2,1.1c-0.2,0.4-0.4,0.9-0.4,1.4c0,0.9,0.3,1.5,0.8,1.9C164.2-36.5,164.9-36.3,165.7-36.3z"/>
		<path class="st1" d="M188.3-32.7c-1.3,0-2.6-0.2-3.7-0.7c-1.2-0.5-2.2-1.1-3-2s-1.5-2-2-3.2c-0.5-1.3-0.7-2.7-0.7-4.4
			c0-1.6,0.3-3.1,0.8-4.4s1.3-2.4,2.2-3.2c0.9-0.9,2-1.6,3.1-2c1.2-0.5,2.4-0.7,3.7-0.7c1.3,0,2.4,0.2,3.3,0.6
			c0.9,0.4,1.7,0.9,2.5,1.6l-2.2,3c-0.5-0.5-1.1-0.8-1.6-1.1c-0.5-0.3-1.1-0.4-1.7-0.4c-1.6,0-2.9,0.6-3.9,1.8s-1.5,2.8-1.5,4.8
			c0,2,0.5,3.6,1.5,4.7c1,1.2,2.2,1.8,3.8,1.8c0.8,0,1.5-0.2,2.2-0.5c0.7-0.3,1.3-0.7,1.9-1.2l1.9,3c-0.9,0.8-2,1.4-3.1,1.8
			C190.5-32.9,189.4-32.7,188.3-32.7z"/>
		<path class="st1" d="M198.6-33.2v-28.2h4.5v17.6h0.1l7.3-9h5l-6.7,8l7.4,11.6h-5l-5-8.5l-3.1,3.5v5H198.6z"/>
		<path class="st1" d="M224.9-32.7c-1.4,0-2.7-0.3-4-0.8c-1.3-0.5-2.5-1.2-3.4-1.9l2.2-3c0.9,0.7,1.8,1.2,2.6,1.6
			c0.9,0.4,1.8,0.6,2.8,0.6c1.1,0,1.9-0.2,2.4-0.7c0.5-0.4,0.8-1,0.8-1.7c0-0.4-0.1-0.8-0.4-1.1c-0.2-0.3-0.6-0.6-1-0.8
			s-0.9-0.5-1.4-0.7c-0.5-0.2-1-0.4-1.5-0.6c-0.6-0.2-1.3-0.5-2-0.8c-0.7-0.3-1.3-0.7-1.8-1.2c-0.5-0.5-0.9-1-1.3-1.6
			c-0.3-0.6-0.5-1.3-0.5-2.1c0-1.7,0.6-3.1,1.9-4.2c1.3-1.1,3-1.6,5.2-1.6c1.4,0,2.6,0.2,3.7,0.7c1.1,0.5,2,1,2.8,1.6l-2.1,2.8
			c-0.7-0.5-1.4-0.9-2.1-1.2c-0.7-0.3-1.4-0.5-2.2-0.5c-1,0-1.7,0.2-2.2,0.6c-0.5,0.4-0.7,0.9-0.7,1.5c0,0.4,0.1,0.7,0.3,1
			c0.2,0.3,0.5,0.5,0.9,0.7c0.4,0.2,0.8,0.4,1.3,0.6c0.5,0.2,1,0.4,1.5,0.6c0.7,0.2,1.3,0.5,2,0.8c0.7,0.3,1.3,0.7,1.8,1.1
			c0.5,0.5,1,1,1.3,1.7c0.3,0.7,0.5,1.4,0.5,2.3c0,0.9-0.2,1.6-0.5,2.4s-0.8,1.4-1.5,1.9c-0.6,0.5-1.4,1-2.4,1.3
			S226.1-32.7,224.9-32.7z"/>
	</g>
	<g class="st0">
		<path class="st2" d="M239.3-32.7c-0.9,0-1.6-0.3-2.1-0.9c-0.6-0.6-0.9-1.3-0.9-2.2s0.3-1.7,0.9-2.2c0.6-0.6,1.3-0.9,2.1-0.9
			s1.6,0.3,2.1,0.9c0.6,0.6,0.8,1.3,0.8,2.2s-0.3,1.7-0.8,2.2C240.8-33,240.1-32.7,239.3-32.7z"/>
		<path class="st2" d="M250-56.2c-0.8,0-1.5-0.2-2-0.7c-0.5-0.5-0.8-1.1-0.8-1.9s0.3-1.4,0.8-1.9c0.5-0.5,1.2-0.7,2-0.7
			c0.8,0,1.5,0.2,2,0.7c0.5,0.5,0.8,1.1,0.8,1.9s-0.3,1.4-0.8,1.9C251.5-56.5,250.8-56.2,250-56.2z M247.7-33.2v-19.6h4.6v19.6
			H247.7z"/>
		<path class="st2" d="M266.2-32.7c-1.2,0-2.4-0.2-3.5-0.7s-2.1-1.1-3-2c-0.9-0.9-1.6-2-2.1-3.2c-0.5-1.3-0.8-2.7-0.8-4.4
			c0-1.6,0.3-3.1,0.8-4.4s1.2-2.4,2.1-3.2c0.9-0.9,1.9-1.6,3-2s2.3-0.7,3.5-0.7c1.2,0,2.4,0.2,3.5,0.7c1.1,0.5,2.1,1.1,3,2
			c0.9,0.9,1.5,2,2.1,3.2c0.5,1.3,0.8,2.7,0.8,4.4c0,1.6-0.3,3.1-0.8,4.4c-0.5,1.3-1.2,2.4-2.1,3.2s-1.8,1.5-3,2
			C268.6-32.9,267.4-32.7,266.2-32.7z M266.2-36.4c1.4,0,2.6-0.6,3.4-1.8s1.2-2.8,1.2-4.7c0-2-0.4-3.6-1.2-4.8s-2-1.8-3.4-1.8
			c-1.4,0-2.6,0.6-3.4,1.8c-0.8,1.2-1.2,2.8-1.2,4.8c0,2,0.4,3.6,1.2,4.7C263.6-37,264.8-36.4,266.2-36.4z"/>
	</g>
	<g transform="translate(64 54)">
		<path class="st3" d="M-79.6-86l-22-12.7c-1.9-1.1-4.4-0.5-5.5,1.5c-0.4,0.6-0.5,1.3-0.5,2v25.4c0,1.4,0.8,2.7,2,3.5l26,15
			c1.2,0.7,2.8,0.7,4,0l26-15c1.2-0.7,2-2,2-3.5v-25.4c0-2.2-1.8-4-4-4c-0.7,0-1.4,0.2-2,0.5l-22,12.7C-76.8-85.3-78.3-85.3-79.6-86
			z"/>
		
			<linearGradient id="SVGID_1_" gradientUnits="userSpaceOnUse" x1="-916.0929" y1="430.4137" x2="-916.0929" y2="429.4137" gradientTransform="matrix(30 0 0 -46.1386 27420.2266 19759.4629)">
			<stop  offset="0" style="stop-color:#FC72C7"/>
			<stop  offset="1" style="stop-color:#DE156C"/>
		</linearGradient>
		<path class="st4" d="M-77.6-82.5v25.4c0,2.2,1.8,4,4,4c0.7,0,1.4-0.2,2-0.5l22-12.7c1.2-0.7,2-2,2-3.5v-25.4c0-2.2-1.8-4-4-4
			c-0.7,0-1.4,0.2-2,0.5l-22,12.7C-76.8-85.3-77.6-83.9-77.6-82.5z"/>
	</g>
	<g transform="translate(32)">
		<path class="st5" d="M-53.6-96.7l-22,12.7c-1.2,0.7-2.8,0.7-4,0l-22-12.7c-1.9-1.1-4.4-0.5-5.5,1.5c-0.4,0.6-0.5,1.3-0.5,2v25.4
			c0,1.4,0.8,2.7,2,3.5l26,15c1.2,0.7,2.8,0.7,4,0l26-15c1.2-0.7,2-2,2-3.5v-25.4c0-2.2-1.8-4-4-4C-52.3-97.2-53-97-53.6-96.7z"/>
		
			<linearGradient id="SVGID_2_" gradientUnits="userSpaceOnUse" x1="-884.0929" y1="484.4137" x2="-884.0929" y2="483.4137" gradientTransform="matrix(30 0 0 -46.1386 26460.2266 22252.9473)">
			<stop  offset="0" style="stop-color:#8896DB"/>
			<stop  offset="1" style="stop-color:#47529D"/>
		</linearGradient>
		<path class="st6" d="M-53.6-96.7l-22,12.7c-1.2,0.7-2,2-2,3.5v25.4c0,2.2,1.8,4,4,4c0.7,0,1.4-0.2,2-0.5l22-12.7
			c1.2-0.7,2-2,2-3.5v-25.4c0-2.2-1.8-4-4-4C-52.3-97.2-53-97-53.6-96.7z"/>
	</g>
	<g transform="translate(0 52)">
		<path class="st7" d="M-79.6-84l-22-12.7c-1.9-1.1-4.4-0.5-5.5,1.5c-0.4,0.6-0.5,1.3-0.5,2v25.4c0,1.4,0.8,2.7,2,3.5l26,15
			c1.2,0.7,2.8,0.7,4,0l26-15c1.2-0.7,2-2,2-3.5v-25.4c0-2.2-1.8-4-4-4c-0.7,0-1.4,0.2-2,0.5l-22,12.7C-76.8-83.3-78.3-83.3-79.6-84
			z"/>
		
			<linearGradient id="SVGID_3_" gradientUnits="userSpaceOnUse" x1="-852.0929" y1="432.4137" x2="-852.0929" y2="431.4137" gradientTransform="matrix(30 0 0 -46.1386 25500.2266 19853.7383)">
			<stop  offset="0" style="stop-color:#757CBA"/>
			<stop  offset="1" style="stop-color:#252960"/>
		</linearGradient>
		<path class="st8" d="M-77.6-80.5v25.4c0,2.2,1.8,4,4,4c0.7,0,1.4-0.2,2-0.5l22-12.7c1.2-0.7,2-2,2-3.5v-25.4c0-2.2-1.8-4-4-4
			c-0.7,0-1.4,0.2-2,0.5l-22,12.7C-76.8-83.3-77.6-81.9-77.6-80.5z"/>
	</g>
</g>
</svg>
